<svg width="316" height="302" viewBox="0 0 316 302" fill="none" xmlns="http://www.w3.org/2000/svg">
<path d="M263.645 31.3113C244.461 19.8716 221.466 18.6273 201.205 28.1524C183.95 36.24 170.524 49.9931 153.25 58.0867C129.65 69.158 103.738 75.2101 79.88 85.8163C56.0219 96.4225 33.1844 113.045 24.629 136.891C14.549 165.055 18.0896 198.172 33.5057 223.921C58.5671 265.772 108.274 280.637 156.129 280.093C257.25 278.951 309.339 161.534 292.839 77.1489C289.235 58.8658 280.453 41.3317 263.645 31.3113Z" fill="#042940"/>
<path opacity="0.7" d="M263.645 31.3113C244.461 19.8716 221.466 18.6273 201.205 28.1524C183.95 36.24 170.524 49.9931 153.25 58.0867C129.65 69.158 103.738 75.2101 79.88 85.8163C56.0219 96.4225 33.1844 113.045 24.629 136.891C14.549 165.055 18.0896 198.172 33.5057 223.921C58.5671 265.772 108.274 280.637 156.129 280.093C257.25 278.951 309.339 161.534 292.839 77.1489C289.235 58.8658 280.453 41.3317 263.645 31.3113Z" fill="white"/>
<path d="M76.4843 187.403L71.1923 188.321L70.1528 182.825L63.8654 183.918L64.9049 189.414L59.6192 190.332L60.7973 196.572L66.083 195.654L67.1225 201.15L73.4099 200.063L72.3704 194.56L77.6624 193.642L76.4843 187.403Z" stroke="#042940" stroke-linecap="round" stroke-linejoin="round"/>
<path d="M129.316 103.206L124.245 101.49L126.185 96.2233L120.162 94.1818L118.222 99.4486L113.15 97.7333L110.952 103.713L116.017 105.428L114.076 110.701L120.099 112.737L122.046 107.47L127.111 109.185L129.316 103.206Z" stroke="#042940" stroke-linecap="round" stroke-linejoin="round"/>
<path d="M257.231 166.154L252.481 168.564L249.753 163.624L244.102 166.487L246.83 171.427L242.08 173.837L245.173 179.442L249.923 177.032L252.651 181.967L258.302 179.104L255.574 174.163L260.325 171.753L257.231 166.154Z" stroke="#042940" stroke-linecap="round" stroke-linejoin="round"/>
<path d="M54.3839 174.308C56.5133 174.308 58.2395 172.653 58.2395 170.612C58.2395 168.57 56.5133 166.915 54.3839 166.915C52.2545 166.915 50.5283 168.57 50.5283 170.612C50.5283 172.653 52.2545 174.308 54.3839 174.308Z" stroke="#042940" stroke-linecap="round" stroke-linejoin="round"/>
<path d="M114.442 121.193C114.442 121.386 114.382 121.575 114.27 121.736C114.158 121.897 113.998 122.023 113.812 122.097C113.625 122.171 113.42 122.19 113.222 122.152C113.024 122.115 112.842 122.021 112.7 121.884C112.557 121.748 112.46 121.573 112.42 121.383C112.381 121.194 112.401 120.997 112.478 120.818C112.556 120.639 112.686 120.487 112.854 120.379C113.022 120.272 113.219 120.214 113.421 120.214C113.692 120.214 113.952 120.317 114.143 120.501C114.334 120.684 114.442 120.933 114.442 121.193Z" stroke="#042940" stroke-linecap="round" stroke-linejoin="round"/>
<path d="M67.7399 104.407C67.7399 105.091 67.5286 105.759 67.1326 106.327C66.7366 106.895 66.1738 107.338 65.5154 107.599C64.8569 107.861 64.1323 107.929 63.4333 107.796C62.7343 107.663 62.0922 107.334 61.5882 106.85C61.0842 106.367 60.741 105.752 60.602 105.081C60.4629 104.411 60.5343 103.717 60.807 103.085C61.0798 102.454 61.5417 101.914 62.1343 101.535C62.7269 101.155 63.4236 100.953 64.1363 100.953C65.0915 100.954 66.0072 101.319 66.6826 101.966C67.358 102.614 67.7383 103.492 67.7399 104.407Z" stroke="#042940" stroke-linecap="round" stroke-linejoin="round"/>
<path d="M226.519 151.205C226.519 151.592 226.399 151.971 226.175 152.293C225.951 152.614 225.632 152.865 225.259 153.013C224.886 153.161 224.475 153.2 224.079 153.125C223.683 153.049 223.32 152.863 223.034 152.589C222.749 152.315 222.554 151.967 222.476 151.587C222.397 151.208 222.437 150.814 222.592 150.456C222.746 150.099 223.008 149.793 223.344 149.578C223.679 149.363 224.074 149.248 224.478 149.248C225.019 149.248 225.538 149.455 225.921 149.822C226.304 150.189 226.519 150.686 226.519 151.205Z" stroke="#042940" stroke-linecap="round" stroke-linejoin="round"/>
<path d="M205.886 91.5604C208.409 91.5604 210.454 89.5998 210.454 87.1814C210.454 84.7629 208.409 82.8024 205.886 82.8024C203.364 82.8024 201.319 84.7629 201.319 87.1814C201.319 89.5998 203.364 91.5604 205.886 91.5604Z" stroke="#042940" stroke-linecap="round" stroke-linejoin="round"/>
<path d="M177.763 126.544C178.002 126.888 185.229 128.272 188.977 133.496C191.158 136.498 192.988 139.72 194.433 143.106C194.433 143.106 200.701 146.681 203.914 149.629C207.127 152.576 210.958 156.49 213.912 158.544C216.867 160.598 222.947 164.493 224.478 169.054C224.478 169.054 215.361 192.99 212.785 198.281C210.208 203.572 203.851 214.801 203.851 214.801L192.511 260.988H126.733L124.49 245.146C124.49 245.146 104.33 241.352 95.9071 234.274C95.9071 234.274 95.1133 216.758 98.635 201.132C102.157 185.507 114.133 153.017 122.247 143.094C122.247 143.094 135.207 137.15 146.641 135.242C146.641 135.242 154.062 129.618 158.92 129.02C163.777 128.423 177.763 126.544 177.763 126.544Z" fill="white"/>
<path d="M125.379 252.285C131.219 253.354 136.309 254.278 142.256 254.212C148.203 254.145 154.277 252.865 159.14 249.597C160.08 248.847 161.145 248.255 162.29 247.845C164.873 247.151 167.431 248.788 169.995 249.549C173.246 250.515 176.812 250.056 180 248.896C183.187 247.737 186.054 245.931 188.895 244.131C188.475 249.688 188.339 255.254 188.486 260.831L192.537 260.988L202.913 217.217C202.913 217.217 185.166 236.979 176.516 242.881L159.921 238.785C159.921 238.785 158.359 240.03 155.071 240.658C155.071 240.658 153.565 246.209 145.098 246.221C136.63 246.233 124.49 245.146 124.49 245.146L125.379 252.285Z" fill="#042940"/>
<path opacity="0.5" d="M125.379 252.285C131.219 253.354 136.309 254.278 142.256 254.212C148.203 254.145 154.277 252.865 159.14 249.597C160.08 248.847 161.145 248.255 162.29 247.845C164.873 247.151 167.431 248.788 169.995 249.549C173.246 250.515 176.812 250.056 180 248.896C183.187 247.737 186.054 245.931 188.895 244.131C188.475 249.688 188.339 255.254 188.486 260.831L192.537 260.988L202.913 217.217C202.913 217.217 185.166 236.979 176.516 242.881L159.921 238.785C159.921 238.785 158.359 240.03 155.071 240.658C155.071 240.658 153.565 246.209 145.098 246.221C136.63 246.233 124.49 245.146 124.49 245.146L125.379 252.285Z" fill="white"/>
<path d="M108.375 170.612C108.375 170.612 100.67 206.471 101.061 218.787C101.061 218.787 111.531 215.972 118.839 218.787C118.839 218.787 106.403 217.458 101.048 222.924C95.693 228.39 112.174 242.754 145.148 239.836C145.148 239.836 151.725 241.811 155.064 240.652C155.064 240.652 154.17 246.366 145.091 246.215C136.051 245.87 109.603 245.659 95.9009 234.279C95.9072 234.286 94.181 201.319 108.375 170.612Z" fill="#042940"/>
<path opacity="0.6" d="M108.375 170.612C108.375 170.612 100.67 206.471 101.061 218.787C101.061 218.787 111.531 215.972 118.839 218.787C118.839 218.787 106.403 217.458 101.048 222.924C95.693 228.39 112.174 242.754 145.148 239.836C145.148 239.836 151.725 241.811 155.064 240.652C155.064 240.652 154.17 246.366 145.091 246.215C136.051 245.87 109.603 245.659 95.9009 234.279C95.9072 234.286 94.181 201.319 108.375 170.612Z" fill="white"/>
<path d="M124.131 177.485C124.131 177.485 126.405 193.365 130.078 196.687C133.751 200.009 150.868 198.921 157.647 202.503C157.647 202.503 164.029 191.903 175.571 185.271L159.921 208.893L146.395 205.831L129.883 203.415L128.497 206.471H126.015C126.015 206.471 125.738 189.523 124.131 177.485Z" fill="#042940"/>
<path opacity="0.5" d="M124.131 177.485C124.131 177.485 126.405 193.365 130.078 196.687C133.751 200.009 150.868 198.921 157.647 202.503C157.647 202.503 164.029 191.903 175.571 185.271L159.921 208.893L146.395 205.831L129.883 203.415L128.497 206.471H126.015C126.015 206.471 125.738 189.523 124.131 177.485Z" fill="white"/>
<path d="M188.826 145.141C195.901 149.134 196.695 153.633 198.15 156.847C194.471 157.547 190.665 158.296 187.629 160.404C183.849 163.038 181.801 167.399 180.214 171.633C178.712 175.639 177.45 179.725 176.434 183.87C179.853 177.947 184.714 172.904 190.602 169.168C193.998 167.018 198.194 165.285 202.069 166.499C198.818 167.821 195.138 169.609 194.452 172.931C194.317 173.483 194.341 174.059 194.521 174.598C195.101 176.163 197.129 176.585 198.666 177.346C201.665 178.826 203.228 182.178 203.36 185.428C203.492 188.677 202.453 191.818 201.426 194.893C200.523 197.586 199.62 200.28 198.717 202.974C197.564 206.417 196.392 209.908 194.307 212.928C192.222 215.948 189.09 218.479 185.367 219.071C183.811 219.359 182.199 219.184 180.749 218.569C179.65 217.997 178.628 217.297 177.706 216.486C173.24 213.027 167.872 210.805 162.183 210.059C169.504 214.698 172.969 223.124 176.005 231.018C174.611 228.678 172.602 226.729 170.178 225.364C169.557 224.95 168.818 224.726 168.061 224.724C166.07 224.875 165.44 227.309 164.243 228.831C162.807 230.643 160.18 231.29 157.824 231C155.467 230.71 153.3 229.653 151.183 228.584L124.402 215.344L122.512 220.78C122.512 220.78 143.844 237.088 176.528 242.856C176.528 242.856 197.759 226.772 205.281 212.511C212.804 198.251 224.49 169.023 224.49 169.023C224.49 169.023 220.212 161.256 212.879 157.203C212.879 157.203 207.405 154.721 206.252 151.652C205.099 148.584 194.811 143.287 194.811 143.287C194.811 143.287 196.146 146.561 188.826 145.141Z" fill="#042940"/>
<path opacity="0.6" d="M188.826 145.141C195.901 149.134 196.695 153.633 198.15 156.847C194.471 157.547 190.665 158.296 187.629 160.404C183.849 163.038 181.801 167.399 180.214 171.633C178.712 175.639 177.45 179.725 176.434 183.87C179.853 177.947 184.714 172.904 190.602 169.168C193.998 167.018 198.194 165.285 202.069 166.499C198.818 167.821 195.138 169.609 194.452 172.931C194.317 173.483 194.341 174.059 194.521 174.598C195.101 176.163 197.129 176.585 198.666 177.346C201.665 178.826 203.228 182.178 203.36 185.428C203.492 188.677 202.453 191.818 201.426 194.893C200.523 197.586 199.62 200.28 198.717 202.974C197.564 206.417 196.392 209.908 194.307 212.928C192.222 215.948 189.09 218.479 185.367 219.071C183.811 219.359 182.199 219.184 180.749 218.569C179.65 217.997 178.628 217.297 177.706 216.486C173.24 213.027 167.872 210.805 162.183 210.059C169.504 214.698 172.969 223.124 176.005 231.018C174.611 228.678 172.602 226.729 170.178 225.364C169.557 224.95 168.818 224.726 168.061 224.724C166.07 224.875 165.44 227.309 164.243 228.831C162.807 230.643 160.18 231.29 157.824 231C155.467 230.71 153.3 229.653 151.183 228.584L124.402 215.344L122.512 220.78C122.512 220.78 143.844 237.088 176.528 242.856C176.528 242.856 197.759 226.772 205.281 212.511C212.804 198.251 224.49 169.023 224.49 169.023C224.49 169.023 220.212 161.256 212.879 157.203C212.879 157.203 207.405 154.721 206.252 151.652C205.099 148.584 194.811 143.287 194.811 143.287C194.811 143.287 196.146 146.561 188.826 145.141Z" fill="white"/>
<path d="M186.577 89.5429C186.577 89.5429 188.007 73.555 180.819 72.0269C173.63 70.4988 169.592 64.1749 169.592 64.1749L144.09 71.0001L140.133 85.7015L142.653 93.1428C142.653 93.1428 143.182 100.046 143.283 103.459C143.384 106.872 143.283 109.499 145.98 113.643C148.676 117.786 151.183 121.899 157.011 125.481V134.897C157.011 134.897 153.407 144.978 155.398 151.163C155.398 151.163 156.589 152.371 159.877 150.559C163.166 148.747 177.234 139.735 182.142 130.325L183.666 106.401C183.666 106.401 187.717 107.005 189.462 103.465C192.026 100.004 191.925 95.9695 190.93 92.6837C189.935 89.398 185.651 91.524 185.651 91.524L186.577 89.5429Z" fill="#999999"/>
<path d="M157.288 112.984C158.009 112.231 158.898 111.644 159.888 111.265C160.878 110.887 161.945 110.727 163.008 110.798C163.008 110.798 166.077 106.153 169.308 107.005C169.308 107.005 170.304 111.927 166.429 113.866C161.389 116.385 157.288 112.984 157.288 112.984Z" fill="#737373"/>
<path d="M147.813 68.9647C147.813 68.9647 141.708 76.6536 142.061 84.6687C142.414 92.6838 143.63 98.3674 143.277 104.552C142.924 110.737 149.728 121.096 156.702 125.27C161.912 128.392 168.445 127.861 173.517 124.666C179.187 121.042 182.305 114.53 183.446 108.279C183.559 107.675 183.647 107.071 183.71 106.419" stroke="#263238" stroke-linecap="round" stroke-linejoin="round"/>
<path d="M156.702 125.276C156.702 125.276 157.691 133.937 156.702 136.903C155.612 140.158 154.296 147.738 155.442 151.163C156.589 154.588 178.04 140.194 182.186 130.319C182.186 130.319 182.759 111.13 184.189 106.334" stroke="#263238" stroke-linecap="round" stroke-linejoin="round"/>
<path d="M156.11 112.773C156.11 112.773 165.869 115.418 169.863 105.76" stroke="#263238" stroke-linecap="round" stroke-linejoin="round"/>
<path d="M156.897 127.359C156.897 127.359 158.976 133.538 163.462 133.907C167.948 134.275 179.168 125.656 182.992 115.503V110.423C182.992 110.423 179.842 123.711 170.619 126.127C161.396 128.543 157.08 125.469 157.08 125.469L156.897 127.359Z" fill="#263238"/>
<path d="M169.302 107.005C164.968 106.715 163.002 110.798 163.002 110.798C161.934 110.673 160.85 110.808 159.85 111.19C158.851 111.572 157.967 112.189 157.282 112.984C158.35 113.903 159.662 114.519 161.074 114.764C162.486 115.009 163.94 114.874 165.276 114.373C170.203 112.731 169.302 107.005 169.302 107.005Z" stroke="#263238" stroke-linecap="round" stroke-linejoin="round"/>
<path d="M158.435 88.788C158.488 90.7042 158.4 92.6217 158.17 94.526C157.937 96.2353 157.112 97.8721 156.425 99.4788C155.795 100.94 154.743 103.187 155.619 104.728C156.614 106.473 159.921 104.728 159.921 104.728" stroke="#263238" stroke-linecap="round" stroke-linejoin="round"/>
<path d="M161.956 104.365C163.071 104.51 164.653 104.365 164.968 102.511" stroke="#263238" stroke-linecap="round" stroke-linejoin="round"/>
<path d="M165.56 86.4807C166.638 85.4948 168.071 84.9448 169.561 84.9448C171.05 84.9448 172.483 85.4948 173.561 86.4807" stroke="#263238" stroke-width="2" stroke-linecap="round" stroke-linejoin="round"/>
<path d="M152.847 87.9907C152.847 87.9907 149.892 84.3667 146.024 87.9907" stroke="#263238" stroke-width="2" stroke-linecap="round" stroke-linejoin="round"/>
<path d="M181.392 97.1534C181.392 97.1534 184.762 89.392 189.16 91.059C192.19 92.2126 192.373 97.2258 190.766 100.723C189.16 104.22 188.353 107.784 182.998 105.791" stroke="#263238" stroke-linecap="round" stroke-linejoin="round"/>
<path d="M181.99 95.9635C181.99 95.9635 178.752 94.8642 178.154 89.8208C177.555 84.7774 180.781 79.728 179.584 76.104C178.387 72.48 168.956 74.292 166.807 67.9741C166.807 67.9741 159.726 73.0357 146.017 71.9485C146.017 71.9485 143.126 76.6717 142.622 79.5589C141.947 84.073 141.964 88.6575 142.672 93.167C142.672 93.324 142.729 93.475 142.76 93.6321C143.743 98.5486 138.848 86.9397 138.98 81.9809C139.113 77.0221 135.994 70.7223 140.058 66.0293C144.121 61.3362 159.021 58.588 161.956 56.3834C164.892 54.1788 170.6 60.0497 177.196 62.212C183.792 64.3743 189.261 66.9534 188.429 75.9228C187.597 84.8922 188.473 86.0941 188.511 90.8174C188.511 90.8295 185.462 89.7302 181.99 95.9635Z" fill="#263238"/>
<path d="M169.573 93.016C169.573 94.224 169.088 95.2266 168.483 95.2266C167.878 95.2266 167.4 94.2361 167.4 93.016C167.4 91.7959 167.885 90.8114 168.483 90.8114C169.082 90.8114 169.573 91.808 169.573 93.016Z" fill="#263238"/>
<path d="M152.847 93.016C152.847 94.224 152.361 95.2266 151.763 95.2266C151.164 95.2266 150.679 94.2361 150.679 93.016C150.679 91.7959 151.164 90.8114 151.763 90.8114C152.361 90.8114 152.847 91.808 152.847 93.016Z" fill="#263238"/>
<path d="M165.56 95.9635C165.56 95.9635 167.809 98.2527 170.657 98.5788" stroke="#263238" stroke-linecap="round" stroke-linejoin="round"/>
<path d="M150.238 98.5788C150.238 98.5788 154.352 98.301 155.278 95.9635" stroke="#263238" stroke-linecap="round" stroke-linejoin="round"/>
<path d="M159.802 152.631C162.864 150.764 166.914 151.465 170.266 152.788C172.106 153.519 173.857 154.437 175.69 155.204C176.597 155.588 177.532 155.907 178.488 156.158C180.787 156.732 179.962 153.996 179.829 152.77C179.64 151.012 179.508 149.248 179.288 147.503C179.197 147.141 179.242 146.761 179.414 146.428C179.64 146.159 179.956 145.973 180.308 145.902C184.347 144.694 188.7 145.226 192.908 145.298C193.29 145.341 193.677 145.272 194.017 145.099C194.647 144.706 194.578 143.818 194.408 143.118C192.952 137.15 187.818 131.213 182.236 128.229" stroke="#263238" stroke-linecap="round" stroke-linejoin="round"/>
<path d="M157.055 129.196C154.277 130.307 151.423 131.461 149.029 133.164C148.16 133.771 147.36 134.463 146.641 135.23C146.062 135.758 145.698 136.467 145.614 137.229C145.63 137.583 145.728 137.93 145.901 138.244C146.074 138.557 146.319 138.829 146.616 139.041C147.039 139.374 147.505 139.655 148.002 139.874C149.161 140.4 150.522 140.913 151.013 142.031C151.133 142.265 151.177 142.527 151.139 142.786C151.077 143.012 150.955 143.22 150.787 143.39C149.829 144.507 148.141 145.371 148.267 146.814C148.348 147.932 149.527 148.626 150.572 149.122C151.618 149.617 152.84 150.13 153.199 151.199" stroke="#263238" stroke-linecap="round" stroke-linejoin="round"/>
<path d="M140.606 72.5585C141.015 70.1425 143.649 68.5841 146.181 68.1915C148.714 67.7989 151.316 68.1915 153.867 67.9801C156.001 67.778 158.065 67.139 159.919 66.1064C161.773 65.0737 163.375 63.6715 164.615 61.9945" stroke="white" stroke-linecap="round" stroke-linejoin="round"/>
<path d="M143.472 65.7695C148.046 63.1783 154.472 65.8722 158.932 63.1059C160.195 62.2248 161.293 61.1468 162.183 59.9167" stroke="white" stroke-linecap="round" stroke-linejoin="round"/>
<path d="M201.816 164.892C185.436 168.027 179.326 179.581 179.326 179.581L159.922 208.881" stroke="#263238" stroke-linecap="round" stroke-linejoin="round"/>
<path d="M187.969 161.727C189.328 160.52 190.868 159.514 192.537 158.743" stroke="#263238" stroke-linecap="round" stroke-linejoin="round"/>
<path d="M176.516 183.846C176.516 183.846 178.582 173.263 184.517 165.466" stroke="#263238" stroke-linecap="round" stroke-linejoin="round"/>
<path d="M126.015 206.423C126.015 206.423 125.164 174.006 122.235 169.054" stroke="#263238" stroke-linecap="round" stroke-linejoin="round"/>
<path d="M194.433 143.106C194.433 143.106 203.883 148.542 208.079 153.652C212.274 158.761 222.191 162.156 224.459 169.054C224.459 169.054 211.399 208.507 197.715 222.767C184.032 237.028 176.497 242.88 176.497 242.88C176.497 242.88 143.579 237.396 122.229 220.206L129.864 203.385C129.864 203.385 151.391 205.994 159.903 208.893C168.414 211.793 176.497 229.351 176.497 229.351" stroke="#263238" stroke-linecap="round" stroke-linejoin="round"/>
<path d="M159.922 208.893C159.922 208.893 174.991 211.702 179.886 218.279" stroke="#263238" stroke-linecap="round" stroke-linejoin="round"/>
<path d="M203.284 215.658L192.537 260.988H126.733L124.49 245.145" stroke="#263238" stroke-linecap="round" stroke-linejoin="round"/>
<path d="M155.07 240.658C151.435 247.797 146.641 246.221 146.641 246.221C109.566 247.567 95.9072 234.285 95.9072 234.285C95.9072 234.285 94.0172 215.604 101.306 190.393C108.595 165.182 122.247 143.106 122.247 143.106C128.302 139.246 141.809 136.232 145.62 135.435L146.641 135.229" stroke="#263238" stroke-linecap="round" stroke-linejoin="round"/>
<path d="M146.66 246.221C146.66 246.221 144.701 245.912 145.198 233.458" stroke="#263238" stroke-linecap="round" stroke-linejoin="round"/>
<path d="M123.249 221.004C123.249 221.004 113.988 217.875 102.516 225.485" stroke="#263238" stroke-linecap="round" stroke-linejoin="round"/>
<path d="M104.595 218.28C104.595 218.28 116.729 214.819 122.235 220.363" stroke="#263238" stroke-linecap="round" stroke-linejoin="round"/>
<path d="M120.924 220.049L122.499 220.804L128.497 206.441C128.497 206.441 122.285 205.469 112.445 217.216C115.518 217.251 118.495 218.245 120.924 220.049Z" fill="#999999" stroke="#263238" stroke-miterlimit="10"/>
<path d="M145.179 233.458V239.842C145.179 239.842 153.666 242.258 159.947 238.785L145.179 233.458Z" fill="#999999" stroke="#263238" stroke-miterlimit="10"/>
<path d="M191.176 145.232C191.182 145.35 191.169 145.468 191.138 145.582C190.873 146.579 184.403 169.996 163.695 180.415C163.515 180.507 163.314 180.555 163.109 180.554C162.828 180.554 162.554 180.463 162.333 180.297C162.111 180.13 161.954 179.897 161.887 179.635C161.819 179.373 161.845 179.097 161.961 178.851C162.076 178.604 162.274 178.402 162.523 178.277C181.423 168.776 188.082 147.122 188.662 145.129L191.176 145.232Z" fill="#263238"/>
<path d="M146.616 139.023C143.342 146.191 141.576 153.909 141.418 161.733C141.418 162.367 141.418 163.014 141.418 163.672C141.418 163.835 141.418 163.998 141.418 164.161C141.23 164.167 141.043 164.185 140.858 164.216C140.176 164.319 139.515 164.522 138.898 164.82C138.898 163.932 138.898 163.068 138.898 162.216C139.169 148.663 143.39 139.439 145.639 135.453L146.66 135.248C146.081 135.776 145.717 136.485 145.633 137.247C145.652 137.594 145.75 137.932 145.919 138.239C146.089 138.546 146.327 138.813 146.616 139.023Z" fill="#263238"/>
<path d="M171.425 174.967C172.899 176.93 171.69 180.191 168.716 182.251C165.743 184.311 162.139 184.383 160.659 182.42C159.178 180.457 160.388 177.195 163.361 175.136C166.335 173.076 169.97 173.004 171.425 174.967Z" fill="white" stroke="#263238" stroke-linecap="round" stroke-linejoin="round"/>
<path d="M167.759 173.801C168.804 175.19 167.948 177.497 165.869 178.953C163.79 180.409 161.213 180.463 160.199 179.074C159.184 177.685 160.01 175.377 162.089 173.922C164.168 172.466 166.713 172.418 167.759 173.801Z" fill="white" stroke="#263238" stroke-linecap="round" stroke-linejoin="round"/>
<path d="M151.108 198.317C150.839 198.488 150.513 198.554 150.195 198.502C149.878 198.449 149.593 198.282 149.401 198.034C149.208 197.787 149.121 197.478 149.159 197.171C149.196 196.864 149.355 196.583 149.602 196.385C149.709 196.3 153.936 192.851 152.084 181.236C151.927 180.252 151.725 179.201 151.454 178.095C150.654 174.574 149.419 170.117 146.893 166.843C146.292 165.979 145.469 165.279 144.503 164.809C143.538 164.34 142.462 164.116 141.381 164.161C141.193 164.167 141.005 164.185 140.82 164.216C140.138 164.319 139.477 164.522 138.861 164.82C136.979 165.752 135.55 167.351 134.879 169.277L134.652 169.881C133.224 173.585 132.055 177.376 131.156 181.23C130.148 185.972 129.807 190.943 131.597 194.416C132.076 195.368 132.759 196.214 133.601 196.898C134.443 197.581 135.426 198.088 136.485 198.384C136.77 198.473 137.012 198.657 137.168 198.902C137.324 199.147 137.383 199.438 137.336 199.721C137.289 200.005 137.139 200.263 136.911 200.449C136.684 200.636 136.394 200.739 136.095 200.739C135.962 200.739 135.83 200.719 135.704 200.679C134.326 200.282 133.05 199.616 131.954 198.722C130.859 197.828 129.969 196.725 129.341 195.485C127.325 191.577 127.59 186.255 128.61 181.23C129.515 177.097 130.741 173.035 132.277 169.078L132.504 168.474C132.999 167.036 133.829 165.725 134.93 164.64C136.031 163.555 137.375 162.724 138.861 162.21C139.375 162.039 139.904 161.914 140.442 161.836C140.763 161.793 141.072 161.763 141.399 161.745C142.874 161.706 144.335 162.023 145.65 162.665C146.964 163.308 148.089 164.256 148.922 165.424C151.731 169.048 153.067 173.837 153.918 177.594C154.214 178.887 154.44 180.101 154.611 181.248C156.601 194.271 151.353 198.148 151.108 198.317Z" fill="#263238" stroke="#263238" stroke-miterlimit="10"/>
<path d="M135.213 200.528C135.213 200.528 139.78 202.34 140.94 200.528C142.099 198.716 141.16 197.864 139.579 197.719C138.003 197.642 136.424 197.642 134.847 197.719L135.213 200.528Z" fill="#263238" stroke="#263238" stroke-miterlimit="10"/>
<path d="M137.311 199.924C137.228 200.166 137.068 200.377 136.853 200.527C136.638 200.677 136.379 200.757 136.114 200.758C135.981 200.757 135.849 200.737 135.723 200.697C134.345 200.301 133.068 199.634 131.973 198.74C130.878 197.846 129.988 196.743 129.36 195.503C127.344 191.595 127.609 186.274 128.629 181.248H131.149C130.141 185.99 129.801 190.961 131.59 194.434C132.07 195.387 132.753 196.232 133.595 196.916C134.437 197.599 135.42 198.106 136.479 198.402C136.639 198.449 136.787 198.525 136.915 198.627C137.043 198.729 137.149 198.855 137.226 198.996C137.304 199.138 137.351 199.293 137.366 199.452C137.38 199.611 137.361 199.772 137.311 199.924Z" fill="white" stroke="#263238" stroke-linecap="round" stroke-linejoin="round"/>
<path d="M146.899 197.007C146.71 197.223 146.569 197.475 146.488 197.747C146.406 198.018 146.386 198.303 146.427 198.583C146.553 198.997 146.826 199.355 147.199 199.596C147.572 199.836 148.021 199.944 148.468 199.9C149.363 199.786 150.181 199.355 150.761 198.692C151.391 198.015 153.577 193.588 151.555 194.349C150.087 194.881 147.882 195.781 146.899 197.007Z" fill="#263238" stroke="#263238" stroke-miterlimit="10"/>
<path d="M151.108 198.317C150.839 198.488 150.513 198.554 150.195 198.502C149.878 198.449 149.593 198.282 149.401 198.034C149.208 197.787 149.121 197.478 149.159 197.171C149.196 196.864 149.355 196.583 149.602 196.385C149.709 196.3 153.936 192.851 152.084 181.236H154.604C156.601 194.271 151.353 198.148 151.108 198.317Z" fill="white" stroke="#263238" stroke-linecap="round" stroke-linejoin="round"/>
<path opacity="0.2" d="M162.41 91.5603C162.41 91.5603 170.342 87.6102 177.631 91.5603C177.631 91.5603 177.75 97.3889 174.997 99.7868C174.021 100.638 169.548 100.783 167.853 100.638C160.974 100.04 162.41 91.5603 162.41 91.5603Z" fill="white"/>
<path opacity="0.2" d="M157.433 91.5603C157.433 91.5603 149.501 87.6102 142.218 91.5603C142.218 91.5603 142.099 97.3889 144.846 99.7868C145.822 100.638 150.301 100.783 151.99 100.638C158.869 100.04 157.433 91.5603 157.433 91.5603Z" fill="white"/>
<path d="M162.41 91.5603C162.41 91.5603 170.342 87.6102 177.631 91.5603C177.631 91.5603 177.75 97.3889 174.997 99.7868C174.021 100.638 169.548 100.783 167.853 100.638C160.974 100.04 162.41 91.5603 162.41 91.5603Z" stroke="#263238" stroke-miterlimit="10"/>
<path d="M157.433 91.5603C157.433 91.5603 149.501 87.6102 142.218 91.5603C142.218 91.5603 142.099 97.3889 144.846 99.7868C145.822 100.638 150.301 100.783 151.99 100.638C158.869 100.04 157.433 91.5603 157.433 91.5603Z" stroke="#263238" stroke-miterlimit="10"/>
<path d="M157.433 91.5603C157.433 91.5603 159.21 90.31 162.41 91.5603" stroke="#263238" stroke-miterlimit="10"/>
<path d="M177.631 91.5603L180.945 93.0341" stroke="#263238" stroke-miterlimit="10"/>
<path d="M50.7866 277.067L74.1029 255.951H259.159L273.17 277.067H50.7866Z" fill="white" stroke="#263238" stroke-linecap="round" stroke-linejoin="round"/>
<path d="M273.17 277.067H50.7866V282.751H273.17V277.067Z" fill="#263238" stroke="#263238" stroke-linecap="round" stroke-linejoin="round"/>
<path d="M74.1029 271.848V267.469H110.643V271.848H103.593H74.1029Z" fill="white" stroke="#263238" stroke-miterlimit="10"/>
<path d="M74.1029 267.469L95.6867 253.589L124.49 254.242L110.643 267.469H74.1029Z" fill="white" stroke="#263238" stroke-linecap="round" stroke-linejoin="round"/>
<path d="M110.643 271.848L124.49 258.548V254.242L110.643 267.469V271.848Z" fill="white" stroke="#263238" stroke-linecap="round" stroke-linejoin="round"/>
<path d="M109.654 266.364C109.654 266.364 106.737 266.92 106.737 269.342C106.737 271.764 109.257 272.476 109.257 272.476" stroke="#263238" stroke-width="2" stroke-linecap="round" stroke-linejoin="round"/>
<path d="M106.737 266.364C106.737 266.364 103.82 266.92 103.82 269.342C103.82 271.764 106.34 272.476 106.34 272.476" stroke="#263238" stroke-width="2" stroke-linecap="round" stroke-linejoin="round"/>
<path d="M103.82 266.364C103.82 266.364 100.903 266.92 100.903 269.342C100.903 271.764 103.423 272.476 103.423 272.476" stroke="#263238" stroke-width="2" stroke-linecap="round" stroke-linejoin="round"/>
<path d="M100.903 266.364C100.903 266.364 97.9862 266.92 97.9862 269.342C97.9862 271.764 100.506 272.476 100.506 272.476" stroke="#263238" stroke-width="2" stroke-linecap="round" stroke-linejoin="round"/>
<path d="M97.9862 266.364C97.9862 266.364 95.0693 266.92 95.0693 269.342C95.0693 271.764 97.5893 272.476 97.5893 272.476" stroke="#263238" stroke-width="2" stroke-linecap="round" stroke-linejoin="round"/>
<path d="M95.0693 266.364C95.0693 266.364 92.1524 266.92 92.1524 269.342C92.1524 271.764 94.6724 272.476 94.6724 272.476" stroke="#263238" stroke-width="2" stroke-linecap="round" stroke-linejoin="round"/>
<path d="M92.1524 266.364C92.1524 266.364 89.2355 266.92 89.2355 269.342C89.2355 271.764 91.7555 272.476 91.7555 272.476" stroke="#263238" stroke-width="2" stroke-linecap="round" stroke-linejoin="round"/>
<path d="M89.2355 266.364C89.2355 266.364 86.3186 266.92 86.3186 269.342C86.3186 271.764 88.8386 272.476 88.8386 272.476" stroke="#263238" stroke-width="2" stroke-linecap="round" stroke-linejoin="round"/>
<path d="M85.9595 266.364C85.9595 266.364 83.0426 266.92 83.0426 269.342C83.0426 271.764 85.5626 272.476 85.5626 272.476" stroke="#263238" stroke-width="2" stroke-linecap="round" stroke-linejoin="round"/>
<path d="M82.6772 266.364C82.6772 266.364 79.7603 266.92 79.7603 269.342C79.7603 271.764 82.2803 272.476 82.2803 272.476" stroke="#263238" stroke-width="2" stroke-linecap="round" stroke-linejoin="round"/>
<path d="M79.0295 266.364C79.0295 266.364 76.1126 266.92 76.1126 269.342C76.1126 271.764 78.6326 272.476 78.6326 272.476" stroke="#263238" stroke-width="2" stroke-linecap="round" stroke-linejoin="round"/>
<path d="M97.52 256.99C95.5078 258.054 93.9129 259.719 92.9777 261.731C95.63 260.928 97.7279 259.116 99.7376 257.304L97.5578 262.486C98.5613 262.408 99.5314 262.104 100.39 261.6C101.248 261.095 101.97 260.403 102.497 259.581C102.324 259.652 102.169 259.758 102.042 259.891C101.915 260.024 101.818 260.181 101.759 260.352C101.7 260.523 101.678 260.704 101.697 260.883C101.716 261.063 101.774 261.237 101.867 261.393C103.694 261.139 104.86 259.448 105.779 257.914C105.948 258.768 106.014 259.637 105.975 260.505C107.502 260.715 109.061 260.525 110.485 259.956" stroke="#263238" stroke-width="0.75" stroke-linecap="round" stroke-linejoin="round"/>
<path d="M257.924 234.799H194.414V268.23H257.924V234.799Z" fill="white" stroke="#263238" stroke-linecap="round" stroke-linejoin="round"/>
<path d="M194.168 268.224L183.956 258.917V225.485L194.168 234.799V268.224Z" fill="white" stroke="#263238" stroke-linecap="round" stroke-linejoin="round"/>
<path d="M257.924 234.799L247.712 225.485H184.208L194.414 234.799H257.924Z" fill="white" stroke="#263238" stroke-linecap="round" stroke-linejoin="round"/>
<path d="M234.57 247.338H228.957V241.709H221.044V247.338H214.92V254.924H221.044V260.548H228.957V254.924H234.57V247.338Z" fill="#FB5656" stroke="#263238" stroke-miterlimit="10"/>
<path d="M225.618 234.799L215.406 225.485" stroke="#263238" stroke-linecap="round" stroke-linejoin="round"/>
<path d="M91.3752 92.7108C98.7832 85.6086 98.7832 74.0936 91.3752 66.9913C83.9672 59.8891 71.9565 59.8891 64.5486 66.9913C57.1406 74.0936 57.1406 85.6086 64.5486 92.7108C71.9566 99.8131 83.9672 99.8131 91.3752 92.7108Z" fill="white" stroke="#263238" stroke-linecap="round" stroke-linejoin="round"/>
<path d="M93.74 77.0643C93.7398 78.2817 93.3417 79.4684 92.6015 80.4576C91.8613 81.4468 90.8163 82.1886 89.6135 82.5788L81.14 85.315L70.8269 88.6551C69.3077 89.1339 67.6526 89.0177 66.2224 88.3316C64.7921 87.6456 63.7027 86.4454 63.1915 84.9926C62.6803 83.5398 62.7888 81.9522 63.4932 80.5757C64.1977 79.1992 65.4411 78.1455 66.9524 77.6442L76.3205 74.6242L85.7327 71.6042C86.6433 71.3105 87.6136 71.2284 88.5637 71.3646C89.5139 71.5007 90.4167 71.8513 91.198 72.3874C91.9792 72.9234 92.6164 73.6297 93.0573 74.4481C93.4981 75.2664 93.73 76.1735 93.7337 77.0945L93.74 77.0643Z" fill="white"/>
<path d="M93.7401 77.0644C93.7399 78.2818 93.3417 79.4685 92.6015 80.4577C91.8613 81.4468 90.8164 82.1887 89.6136 82.5789L81.1401 85.315C80.9141 81.3128 79.205 77.5194 76.3206 74.6182L85.7328 71.5982C86.6433 71.3045 87.6136 71.2224 88.5638 71.3586C89.5139 71.4947 90.4168 71.8453 91.198 72.3814C91.9792 72.9175 92.6165 73.6237 93.0573 74.4421C93.4982 75.2605 93.73 76.1675 93.7338 77.0885L93.7401 77.0644Z" fill="#FB5656"/>
<path d="M93.74 77.0643C93.7398 78.2817 93.3417 79.4684 92.6015 80.4576C91.8613 81.4468 90.8163 82.1886 89.6135 82.5788L81.14 85.315L70.8269 88.6551C69.3077 89.1339 67.6526 89.0177 66.2224 88.3316C64.7921 87.6456 63.7027 86.4454 63.1915 84.9926C62.6803 83.5398 62.7888 81.9522 63.4932 80.5757C64.1977 79.1992 65.4411 78.1455 66.9524 77.6442L76.3205 74.6242L85.7327 71.6042C86.6433 71.3105 87.6136 71.2284 88.5637 71.3646C89.5139 71.5007 90.4167 71.8513 91.198 72.3874C91.9792 72.9234 92.6164 73.6297 93.0573 74.4481C93.4981 75.2664 93.73 76.1735 93.7337 77.0945L93.74 77.0643Z" stroke="#263238" stroke-linecap="round" stroke-linejoin="round"/>
<path d="M81.1401 85.315C80.9472 81.3054 79.2333 77.5014 76.3206 74.6182" stroke="#263238" stroke-linecap="round" stroke-linejoin="round"/>
<path d="M91.7114 74.896C92.1092 75.5384 92.3101 76.2752 92.291 77.0221" stroke="white" stroke-linecap="round" stroke-linejoin="round"/>
<path d="M78.7145 75.5L86.2745 73.084C86.9526 72.8611 87.6738 72.785 88.3862 72.8612C89.0987 72.9375 89.7846 73.1641 90.3947 73.5249" stroke="white" stroke-linecap="round" stroke-linejoin="round"/>
<path d="M206.852 55.1789C216.5 51.2641 221.011 40.5921 216.927 31.3423C212.844 22.0926 201.713 17.7678 192.065 21.6826C182.417 25.5975 177.906 36.2695 181.989 45.5193C186.073 54.769 197.204 59.0938 206.852 55.1789Z" fill="white" stroke="#263238" stroke-linecap="round" stroke-linejoin="round"/>
<path d="M206 46.043L189.456 40.7338C188.08 40.2904 186.945 39.3416 186.298 38.0957C185.652 36.8499 185.548 35.409 186.01 34.0898C186.472 32.7709 187.462 31.6821 188.761 31.0626C190.061 30.443 191.564 30.3435 192.94 30.7859L209.484 36.089C210.858 36.5338 211.993 37.4828 212.639 38.7283C213.285 39.9737 213.389 41.4138 212.93 42.733C212.467 44.052 211.478 45.1413 210.179 45.7618C208.879 46.3823 207.377 46.4834 206 46.043Z" fill="#FFBE17"/>
<path d="M193.879 40.3109L196.651 33.9629" stroke="#263238" stroke-linecap="round" stroke-linejoin="round"/>
<path d="M202.995 43.2163L205.754 36.8864" stroke="#263238" stroke-linecap="round" stroke-linejoin="round"/>
<path d="M196.165 40.6855C196.475 40.6855 196.726 40.4448 196.726 40.1479C196.726 39.851 196.475 39.6104 196.165 39.6104C195.856 39.6104 195.605 39.851 195.605 40.1479C195.605 40.4448 195.856 40.6855 196.165 40.6855Z" fill="#263238"/>
<path d="M201.678 41.7304C201.678 41.8368 201.645 41.9407 201.583 42.0291C201.522 42.1175 201.434 42.1864 201.332 42.2271C201.229 42.2678 201.117 42.2784 201.008 42.2577C200.899 42.2369 200.799 42.1857 200.721 42.1105C200.642 42.0354 200.589 41.9396 200.567 41.8353C200.546 41.731 200.557 41.6229 200.599 41.5247C200.642 41.4265 200.714 41.3425 200.806 41.2835C200.898 41.2244 201.006 41.1929 201.117 41.1929C201.266 41.1929 201.409 41.2495 201.514 41.3503C201.619 41.4511 201.678 41.5879 201.678 41.7304Z" fill="#263238"/>
<path d="M198.339 35.9018C198.649 35.9018 198.9 35.6611 198.9 35.3642C198.9 35.0673 198.649 34.8267 198.339 34.8267C198.029 34.8267 197.778 35.0673 197.778 35.3642C197.778 35.6611 198.029 35.9018 198.339 35.9018Z" fill="#263238"/>
<path d="M203.77 36.8984C203.77 37.0047 203.737 37.1087 203.675 37.1971C203.613 37.2855 203.526 37.3544 203.423 37.395C203.321 37.4357 203.208 37.4464 203.099 37.4256C202.991 37.4049 202.891 37.3537 202.812 37.2785C202.734 37.2033 202.681 37.1075 202.659 37.0033C202.637 36.899 202.648 36.7909 202.691 36.6927C202.733 36.5945 202.805 36.5105 202.897 36.4514C202.99 36.3924 203.098 36.3608 203.209 36.3608C203.358 36.3608 203.5 36.4175 203.605 36.5183C203.71 36.6191 203.77 36.7558 203.77 36.8984Z" fill="#263238"/>
<path d="M206 46.043L189.456 40.7338C188.08 40.2904 186.945 39.3416 186.298 38.0957C185.652 36.8499 185.548 35.409 186.01 34.0898C186.472 32.7709 187.462 31.6821 188.761 31.0626C190.061 30.443 191.564 30.3435 192.94 30.7859L209.484 36.089C210.858 36.5338 211.993 37.4828 212.639 38.7283C213.285 39.9737 213.389 41.4138 212.93 42.733C212.467 44.052 211.478 45.1413 210.179 45.7618C208.879 46.3823 207.377 46.4834 206 46.043Z" stroke="#263238" stroke-linecap="round" stroke-linejoin="round"/>
<path d="M127.848 55.6284C138.325 55.6284 146.818 47.486 146.818 37.4419C146.818 27.3978 138.325 19.2555 127.848 19.2555C117.372 19.2555 108.879 27.3978 108.879 37.4419C108.879 47.486 117.372 55.6284 127.848 55.6284Z" fill="white" stroke="#263238" stroke-linecap="round" stroke-linejoin="round"/>
<path d="M138.716 37.907V45.3604C138.716 47.2509 137.456 48.7851 135.912 48.7851H119.784C118.234 48.7851 116.981 47.2509 116.981 45.3604V37.907C116.981 36.0165 118.241 34.4824 119.784 34.4824H122.437V30.1577H133.147V34.4824H135.893C137.456 34.4824 138.716 36.0165 138.716 37.907Z" fill="white" stroke="#263238" stroke-linecap="round" stroke-linejoin="round"/>
<path d="M138.709 38.7648H116.981V43.3854H138.709V38.7648Z" fill="#47C8FF" stroke="#263238" stroke-miterlimit="10"/>
<path d="M123.917 25.0962H131.88C132.779 25.0962 133.641 25.4386 134.277 26.048C134.913 26.6574 135.27 27.4839 135.27 28.3457V31.7221H120.521V28.3457C120.521 27.9185 120.609 27.4954 120.78 27.1008C120.951 26.7061 121.201 26.3476 121.516 26.0458C121.832 25.744 122.206 25.5048 122.618 25.3418C123.03 25.1789 123.471 25.0954 123.917 25.0962Z" fill="#47C8FF" stroke="#263238" stroke-miterlimit="10"/>
<path d="M123.098 25.3016V31.7222" stroke="#263238" stroke-linecap="round" stroke-linejoin="round"/>
<path d="M126.582 25.0962V31.7221" stroke="#263238" stroke-linecap="round" stroke-linejoin="round"/>
<path d="M130.066 25.0962V31.7221" stroke="#263238" stroke-linecap="round" stroke-linejoin="round"/>
<path d="M133.55 25.4707V31.7221" stroke="#263238" stroke-linecap="round" stroke-linejoin="round"/>
<path d="M79.249 136.864C80.9439 126.952 73.9368 117.599 63.5984 115.975C53.2599 114.35 43.505 121.067 41.8102 130.979C40.1153 140.891 47.1224 150.243 57.4608 151.868C67.7993 153.493 77.5542 146.775 79.249 136.864Z" fill="white" stroke="#263238" stroke-linecap="round" stroke-linejoin="round"/>
<path d="M70.1522 138.613C72.2184 134.424 69.3775 128.981 63.807 126.456C58.2365 123.93 52.0458 125.278 49.9796 129.467C47.9135 133.655 50.7544 139.098 56.3249 141.624C61.8954 144.15 68.0861 142.802 70.1522 138.613Z" fill="#042940" stroke="#263238" stroke-linecap="round" stroke-linejoin="round"/>
<path d="M70.8411 137.188C72.7793 133.259 69.8348 128.026 64.2643 125.501C58.6938 122.975 52.6068 124.113 50.6686 128.042C48.7303 131.972 51.6749 137.204 57.2454 139.73C62.8159 142.256 68.9029 141.118 70.8411 137.188Z" fill="#47C8FF" stroke="#263238" stroke-linecap="round" stroke-linejoin="round"/>
<path d="M63.9725 127.239L57.0866 136.522" stroke="#263238" stroke-linecap="round" stroke-linejoin="round"/>
<path d="M59.8271 125.735C60.75 125.854 61.6591 126.056 62.5425 126.339" stroke="white" stroke-linecap="round" stroke-linejoin="round"/>
<path d="M53.7098 134.475C53.7098 134.475 50.1944 130.784 53.6279 127.227C54.4202 126.452 55.4521 125.944 56.57 125.777" stroke="white" stroke-linecap="round" stroke-linejoin="round"/>
<path d="M279.062 136.874C280.757 126.962 273.75 117.61 263.412 115.985C253.073 114.36 243.318 121.078 241.624 130.99C239.929 140.902 246.936 150.254 257.274 151.879C267.613 153.504 277.368 146.786 279.062 136.874Z" fill="white" stroke="#263238" stroke-linecap="round" stroke-linejoin="round"/>
<path d="M271.23 135.755C271.085 135.954 270.94 136.16 270.789 136.359C267.948 140.134 263.569 143.655 260.325 144.35V144.302C257.175 143.625 252.935 140.273 250.093 136.613C249.936 136.413 249.785 136.208 249.64 136.009C246.906 132.252 245.753 128.308 248.796 126.677C254.982 123.367 260.325 130.464 260.325 130.464C260.325 130.464 265.68 123.421 271.854 126.725C274.815 128.308 273.8 132.089 271.23 135.755Z" fill="#FB5656" stroke="#263238" stroke-miterlimit="10"/>
<path d="M271.23 135.755C271.085 135.954 270.94 136.16 270.789 136.359H269.226L267.437 138.624L266.221 131.908L264.331 136.474H259.865L257.578 140.128L255.814 132.729L253.539 136.589H250.093C249.936 136.389 249.785 136.184 249.64 135.985H253.174L256.066 131.074L257.842 138.533L259.524 135.846H263.934L266.454 129.661L267.803 137.126L268.905 135.731L271.23 135.755Z" fill="white"/>
<path d="M242.08 98.2406C252.556 98.2406 261.049 90.0982 261.049 80.0541C261.049 70.01 252.556 61.8677 242.08 61.8677C231.603 61.8677 223.111 70.01 223.111 80.0541C223.111 90.0982 231.603 98.2406 242.08 98.2406Z" fill="white" stroke="#263238" stroke-linecap="round" stroke-linejoin="round"/>
<path d="M240.656 71.6465C240.839 72.0391 239.698 72.9088 238.136 73.5913C236.574 74.2739 235.112 74.5094 234.929 74.1108C234.747 73.7121 235.881 72.8484 237.449 72.1659C239.018 71.4834 240.467 71.272 240.656 71.6465Z" fill="white" stroke="#263238" stroke-linecap="round" stroke-linejoin="round"/>
<path d="M249.193 88.5163L243.516 91.1497L238.426 81.0992L234.91 74.1531L240.587 71.5137L244.014 78.2905L249.193 88.5163Z" fill="white" stroke="#263238" stroke-linecap="round" stroke-linejoin="round"/>
<path d="M235.963 76.2248L238.426 75.1316L235.963 76.2248Z" fill="#042940"/>
<path d="M235.963 76.2248L238.426 75.1316" stroke="#263238" stroke-linecap="round" stroke-linejoin="round"/>
<path d="M237.034 78.4112L239.497 77.318L237.034 78.4112Z" fill="#042940"/>
<path d="M237.034 78.4112L239.497 77.318" stroke="#263238" stroke-linecap="round" stroke-linejoin="round"/>
<path d="M245.69 90.141L248.619 93.8254L247.158 89.4585L245.69 90.141Z" fill="white" stroke="#263238" stroke-linecap="round" stroke-linejoin="round"/>
<path d="M249.193 88.5163C247.864 89.7918 246.168 90.6582 244.323 91.0047L243.516 91.1497L238.426 81.0991L244.014 78.2905L249.193 88.5163Z" fill="#28CD4C" stroke="#263238" stroke-miterlimit="10"/>
<path d="M239.497 83.0078L241.815 81.981" stroke="#263238" stroke-linecap="round" stroke-linejoin="round"/>
<path d="M240.769 85.3452L243.044 84.3486L240.769 85.3452Z" fill="#042940"/>
<path d="M240.769 85.3452L243.044 84.3486" stroke="#263238" stroke-linecap="round" stroke-linejoin="round"/>
<path d="M236.876 73.235L235.081 69.3634L236.492 68.5963L238.426 72.5163L236.876 73.235Z" fill="white" stroke="#263238" stroke-linecap="round" stroke-linejoin="round"/>
<path d="M239.957 68.1252L239.528 67.2192L231.968 70.4627L232.397 71.3687C232.573 71.7553 234.406 71.3325 236.498 70.4386C238.59 69.5446 240.133 68.5058 239.957 68.1252Z" fill="white" stroke="#263238" stroke-linecap="round" stroke-linejoin="round"/>
<path d="M239.528 67.2192C239.352 66.8386 237.512 67.2554 235.427 68.1493C233.342 69.0432 231.792 70.0821 231.968 70.4626C232.145 70.8432 233.984 70.4264 236.07 69.5264C238.155 68.6265 239.705 67.5997 239.528 67.2192Z" fill="white" stroke="#263238" stroke-linecap="round" stroke-linejoin="round"/>
</svg>
